<?xml version="1.0" encoding="utf-8"?>
<!-- Generator: Adobe Illustrator 17.0.0, SVG Export Plug-In . SVG Version: 6.00 Build 0)  -->
<!DOCTYPE svg PUBLIC "-//W3C//DTD SVG 1.1//EN" "http://www.w3.org/Graphics/SVG/1.1/DTD/svg11.dtd">
<svg version="1.1" id="Layer_1" xmlns="http://www.w3.org/2000/svg" xmlns:xlink="http://www.w3.org/1999/xlink" x="0px" y="0px"
	 width="1420.285px" height="745.075px" viewBox="0 0 1420.285 745.075" enable-background="new 0 0 1420.285 745.075"
	 xml:space="preserve">
<g transform="translate(-61.559 110.984)">
	
		<linearGradient id="SVGID_1_" gradientUnits="userSpaceOnUse" x1="466.4256" y1="658.0424" x2="466.5846" y2="657.3574" gradientTransform="matrix(1272.2836 0 0 -736.0748 -592568.3125 484251.6563)">
		<stop  offset="0" style="stop-color:#2088FF"/>
		<stop  offset="1" style="stop-color:#5316FF"/>
	</linearGradient>
	<path opacity="0.04" fill="url(#SVGID_1_)" enable-background="new    " d="M239.56-122.5c0,0,96.3,128.149,285.626,152.632
		s324.8,83.24,448.842,303.58s363.973,190.962,489.645,146.893s-34.272-705.089-34.272-705.089l-1189.838,22.85L239.56-122.5z"/>
	
		<linearGradient id="SVGID_2_" gradientUnits="userSpaceOnUse" x1="466.4308" y1="657.9194" x2="466.4858" y2="657.2014" gradientTransform="matrix(1272.2836 0 0 -736.0748 -592526.3125 484251.6563)">
		<stop  offset="0" style="stop-color:#2088FF"/>
		<stop  offset="1" style="stop-color:#7632D1"/>
	</linearGradient>
	<path fill="url(#SVGID_2_)" d="M281.56-122.5c0,0,96.3,128.149,285.626,152.632s324.8,83.24,448.842,303.58
		s363.973,190.962,489.645,146.893s-34.272-705.089-34.272-705.089l-1189.838,22.85L281.56-122.5z"/>
	
		<linearGradient id="SVGID_3_" gradientUnits="userSpaceOnUse" x1="466.4308" y1="657.9194" x2="466.4858" y2="657.2014" gradientTransform="matrix(1272.2836 0 0 -736.0748 -592674.3125 484242.6563)">
		<stop  offset="0" style="stop-color:#2088FF"/>
		<stop  offset="1" style="stop-color:#7632D1"/>
	</linearGradient>
	<path opacity="0.03" fill="url(#SVGID_3_)" enable-background="new    " d="M133.56-131.5c0,0,96.3,128.149,285.626,152.632
		s324.8,83.24,448.842,303.58s363.973,190.962,489.645,146.893s-34.272-705.089-34.272-705.089l-1189.838,22.85L133.56-131.5z"/>
</g>
</svg>
