<svg xmlns="http://www.w3.org/2000/svg" width="48.828" height="65.104" viewBox="0 0 48.828 65.104">
  <path id="award-solid" d="M12.347,46.1c-1.1-1.1-.529-.793-3.194-1.507A9.174,9.174,0,0,1,5.92,42.9L.151,57.047a2.035,2.035,0,0,0,1.962,2.8l6.7-.256,4.608,4.867a2.034,2.034,0,0,0,3.361-.631L23.4,47.6a9.125,9.125,0,0,1-11.052-1.5ZM48.673,57.047,42.9,42.9A9.154,9.154,0,0,1,39.67,44.6c-2.679.717-2.092.4-3.194,1.507a9.127,9.127,0,0,1-11.053,1.5l6.618,16.227a2.034,2.034,0,0,0,3.361.631l4.609-4.867,6.7.256A2.035,2.035,0,0,0,48.673,57.047ZM33.44,43.225c1.943-1.977,2.165-1.807,4.932-2.561a5.167,5.167,0,0,0,3.62-3.685c.951-3.611.7-3.175,3.3-5.817a5.275,5.275,0,0,0,1.325-5.033c-.95-3.609-.951-3.105,0-6.718a5.275,5.275,0,0,0-1.325-5.033c-2.6-2.642-2.349-2.207-3.3-5.817a5.167,5.167,0,0,0-3.62-3.685c-3.545-.968-3.118-.715-5.716-3.358A5.059,5.059,0,0,0,27.711.17c-3.544.966-3.049.968-6.6,0a5.057,5.057,0,0,0-4.945,1.349c-2.6,2.642-2.168,2.39-5.714,3.358a5.167,5.167,0,0,0-3.62,3.685c-.95,3.61-.7,3.175-3.3,5.817a5.272,5.272,0,0,0-1.325,5.033c.95,3.606.951,3.1,0,6.716a5.278,5.278,0,0,0,1.325,5.034c2.6,2.642,2.349,2.206,3.3,5.817a5.167,5.167,0,0,0,3.62,3.685c2.846.776,3.058.654,4.931,2.561a5.053,5.053,0,0,0,6.325.74,5.045,5.045,0,0,1,5.408,0A5.052,5.052,0,0,0,33.44,43.225ZM12.416,22.367a12,12,0,1,1,12,12.209,12.1,12.1,0,0,1-12-12.209Z" transform="translate(0.002 0.008)" fill="rgba(149,157,171,0.25)"/>
</svg>
