<svg xmlns="http://www.w3.org/2000/svg" width="71" height="42.6" viewBox="0 0 71 42.6">
  <path id="bed-solid" d="M19.525,85.3a8.875,8.875,0,1,0-8.875-8.875A8.885,8.885,0,0,0,19.525,85.3Zm39.05-14.2H33.725a1.775,1.775,0,0,0-1.775,1.775V88.85H7.1V65.775A1.775,1.775,0,0,0,5.325,64H1.775A1.775,1.775,0,0,0,0,65.775v39.05A1.775,1.775,0,0,0,1.775,106.6h3.55A1.775,1.775,0,0,0,7.1,104.825V99.5H63.9v5.325a1.775,1.775,0,0,0,1.775,1.775h3.55A1.775,1.775,0,0,0,71,104.825v-21.3A12.424,12.424,0,0,0,58.575,71.1Z" transform="translate(0 -64)" fill="rgba(149,157,171,0.25)"/>
</svg>
