<svg xmlns="http://www.w3.org/2000/svg" width="40" height="40" viewBox="0 0 40 40">
  <path id="bug-solid" d="M40,22.57A2.534,2.534,0,0,1,37.449,25H33.126v1.25a11.206,11.206,0,0,1-1.063,4.777l4.705,4.705a2.5,2.5,0,1,1-3.536,3.536l-4.276-4.276A11.2,11.2,0,0,1,21.876,37.5V18.437a.938.938,0,0,0-.937-.937H19.063a.938.938,0,0,0-.937.937V37.5a11.2,11.2,0,0,1-7.081-2.508L6.768,39.268a2.5,2.5,0,1,1-3.536-3.536l4.705-4.705A11.206,11.206,0,0,1,6.876,26.25V25H2.553A2.534,2.534,0,0,1,0,22.57,2.5,2.5,0,0,1,2.5,20H6.876V15.411L3.233,11.768A2.5,2.5,0,0,1,6.768,8.232L11.036,12.5H28.965l4.268-4.268a2.5,2.5,0,0,1,3.536,3.536l-3.643,3.643V20H37.5A2.5,2.5,0,0,1,40,22.57ZM20.079,0a8.75,8.75,0,0,0-8.75,8.75h17.5A8.75,8.75,0,0,0,20.079,0Z" transform="translate(-0.001)" fill="#e13333"/>
</svg>
