<svg xmlns="http://www.w3.org/2000/svg" width="78.478" height="47.104" viewBox="0 0 78.478 47.104">
  <path id="handshake-solid" d="M53.3,64H42.771a3.922,3.922,0,0,0-2.649,1.03L28.068,76.066c-.012.012-.025.037-.037.049a4.878,4.878,0,0,0-.258,6.867,5.114,5.114,0,0,0,6.879.331c.012-.012.037-.012.049-.025l9.8-8.976a1.961,1.961,0,1,1,2.649,2.894l-3.2,2.931L61.8,94.631a8.835,8.835,0,0,1,.969.944V71.848l-6.7-6.7A3.9,3.9,0,0,0,53.3,64Zm13.4,7.872V99.327a3.92,3.92,0,0,0,3.924,3.924h7.848V71.872Zm5.886,27.455a1.962,1.962,0,1,1,1.962-1.962A1.968,1.968,0,0,1,72.592,99.327ZM0,103.239H7.848a3.92,3.92,0,0,0,3.924-3.924V71.872H0ZM5.886,95.4a1.962,1.962,0,1,1-1.962,1.962A1.968,1.968,0,0,1,5.886,95.4Zm53.451,2.281L41.029,82.823l-3.679,3.372A8.826,8.826,0,1,1,25.42,73.184L35.45,64H25.174A3.917,3.917,0,0,0,22.4,65.153l-6.707,6.7V99.3H17.94l11.1,10.043a7.846,7.846,0,0,0,11.036-1.14l.025-.025,2.195,1.9a4.557,4.557,0,0,0,6.413-.662l3.85-4.733.662.54a3.918,3.918,0,0,0,5.518-.576l1.165-1.435a3.931,3.931,0,0,0-.564-5.53Z" transform="translate(0 -64)" fill="rgba(149,157,171,0.25)"/>
</svg>
