<svg xmlns="http://www.w3.org/2000/svg" width="40" height="40" viewBox="0 0 40 40">
  <path id="palette-solid" d="M15.973.358A19.894,19.894,0,0,0,.418,15.859c-2.891,14.61,10.289,25.5,20.219,23.961,3.219-.5,4.8-4.266,3.32-7.164a5.286,5.286,0,0,1,4.758-7.688h6.227a5.112,5.112,0,0,0,5.07-5.1A20.015,20.015,0,0,0,15.973.358ZM7.511,24.968a2.5,2.5,0,1,1,2.5-2.5A2.5,2.5,0,0,1,7.511,24.968Zm2.5-10a2.5,2.5,0,1,1,2.5-2.5A2.5,2.5,0,0,1,10.011,14.968Zm10-5a2.5,2.5,0,1,1,2.5-2.5A2.5,2.5,0,0,1,20.012,9.968Zm10,5a2.5,2.5,0,1,1,2.5-2.5A2.5,2.5,0,0,1,30.012,14.968Z" transform="translate(-0.012 0.035)" fill="#053d9e"/>
</svg>
