<svg xmlns="http://www.w3.org/2000/svg" width="40" height="40" viewBox="0 0 40 40">
  <path id="Path_7" data-name="Path 7" d="M2.835,5.429a16.948,16.948,0,0,1,1.5-6.987l8.192,22.433A17.021,17.021,0,0,1,5.491,14.6,16.676,16.676,0,0,1,2.835,5.429Zm28.75-.871a6.754,6.754,0,0,1-.056.859,9.971,9.971,0,0,1-.223,1.1q-.167.67-.257.982t-.391,1.317q-.3,1-.391,1.295l-1.7,5.714L22.366-2.607q1.027-.067,1.964-.179a.658.658,0,0,0,.58-.413.7.7,0,0,0-.056-.692.664.664,0,0,0-.636-.3l-4.576.223q-1.674-.022-4.509-.223a.672.672,0,0,0-.458.112.661.661,0,0,0-.257.335.862.862,0,0,0-.033.413.628.628,0,0,0,.2.368.7.7,0,0,0,.435.179l1.786.179,2.679,7.321-3.75,11.25L9.487-2.607q1.027-.067,1.964-.179a.658.658,0,0,0,.58-.413.7.7,0,0,0-.056-.692.664.664,0,0,0-.636-.3l-4.576.223q-.156,0-.513-.011t-.58-.011A17.083,17.083,0,0,1,11.8-9.65,16.709,16.709,0,0,1,20-11.737a16.813,16.813,0,0,1,6.261,1.183,17.259,17.259,0,0,1,5.324,3.326h-.223a2.668,2.668,0,0,0-2.054.9,3.057,3.057,0,0,0-.826,2.132,3.252,3.252,0,0,0,.045.536q.045.268.089.48a2.663,2.663,0,0,0,.179.513q.134.3.2.469a3.976,3.976,0,0,0,.268.5q.2.335.279.469t.324.536q.246.4.313.513A9.275,9.275,0,0,1,31.585,4.558ZM20.29,6.924l5.29,14.442a.527.527,0,0,0,.112.246A17.157,17.157,0,0,1,20,22.594a16.523,16.523,0,0,1-4.844-.714ZM35.045-2.808a16.935,16.935,0,0,1,2.121,8.237,16.646,16.646,0,0,1-2.321,8.6,17.144,17.144,0,0,1-6.228,6.217L33.862,5.116a19.67,19.67,0,0,0,1.317-6.161A11.021,11.021,0,0,0,35.045-2.808ZM12.232-12.987a19.829,19.829,0,0,1,15.536,0,20.092,20.092,0,0,1,6.384,4.263,20.092,20.092,0,0,1,4.263,6.384A19.551,19.551,0,0,1,40,5.429,19.551,19.551,0,0,1,38.415,13.2a20.092,20.092,0,0,1-4.263,6.384,20.092,20.092,0,0,1-6.384,4.263,19.829,19.829,0,0,1-15.536,0A20.091,20.091,0,0,1,5.848,19.58,20.092,20.092,0,0,1,1.585,13.2,19.551,19.551,0,0,1,0,5.429,19.551,19.551,0,0,1,1.585-2.339,20.092,20.092,0,0,1,5.848-8.723,20.092,20.092,0,0,1,12.232-12.987ZM12.6,23a18.8,18.8,0,0,0,14.8,0,19.241,19.241,0,0,0,6.094-4.074,19.241,19.241,0,0,0,4.074-6.094,18.577,18.577,0,0,0,1.518-7.4,18.577,18.577,0,0,0-1.518-7.4,19.241,19.241,0,0,0-4.074-6.094A19.241,19.241,0,0,0,27.4-12.138a18.8,18.8,0,0,0-14.8,0A19.241,19.241,0,0,0,6.507-8.065,19.241,19.241,0,0,0,2.433-1.971a18.577,18.577,0,0,0-1.518,7.4,18.577,18.577,0,0,0,1.518,7.4,19.241,19.241,0,0,0,4.074,6.094A19.241,19.241,0,0,0,12.6,23Z" transform="translate(0 14.572)" fill="#25bff9"/>
</svg>
